<?xml version="1.0" encoding="utf-8"?>
<!-- Generator: Adobe Illustrator 23.0.3, SVG Export Plug-In . SVG Version: 6.00 Build 0)  -->
<svg version="1.1" id="Livello_1" xmlns="http://www.w3.org/2000/svg" xmlns:xlink="http://www.w3.org/1999/xlink" x="0px" y="0px"
	 width="2016.9px" height="1816.1px" viewBox="0 0 2016.9 1816.1" style="enable-background:new 0 0 2016.9 1816.1;"
	 xml:space="preserve">
<style type="text/css">
	.st0{fill-rule:evenodd;clip-rule:evenodd;fill:#5F6368;}
	.st1{fill:#63666A;}
	.st2{fill:#34A752;}
	.st3{fill:#F9BA05;}
	.st4{fill:#4285F3;}
	.st5{fill:#E94335;}
	.st6{fill:#1A73E7;}
	.st7{fill:#F9BC23;}
</style>
<g>
	<g>
		<path class="st0" d="M1023.1,1637.6l82.8-34.4c-4.6-11.6-18.2-19.6-34.4-19.6C1050.8,1583.5,1022.1,1601.8,1023.1,1637.6
			 M1120.3,1670.9l31.6,21c-10.2,15.1-34.7,41.1-77.2,41.1c-52.6,0-90.6-40.7-90.6-92.6c0-55.1,38.3-92.6,86.1-92.6
			c48.1,0,71.6,38.2,79.3,58.9l4.2,10.5l-123.8,51.2c9.5,18.6,24.2,28.1,44.9,28.1C1095.4,1696.5,1109.8,1686.3,1120.3,1670.9
			 M919.6,1727.4h40.7v-272.2h-40.7V1727.4z M853.2,1640.7c0-32.6-21.8-56.5-49.5-56.5c-28,0-51.6,23.9-51.6,56.5
			c0,32.3,23.5,55.8,51.6,55.8C831.5,1696.5,853.2,1673,853.2,1640.7z M889,1553.4v166.3c0,68.4-40.3,96.5-88,96.5
			c-44.9,0-71.9-30.2-82.1-54.7l35.4-14.7c6.3,15.1,21.8,33,46.7,33c30.5,0,49.5-18.9,49.5-54.4v-13.3H849
			c-9.1,11.2-26.7,21.1-48.8,21.1c-46.3,0-88.8-40.3-88.8-92.3c0-52.3,42.4-93,88.8-93c22.1,0,39.7,9.8,48.8,20.7h1.4v-15.1
			C850.4,1553.4,889,1553.4,889,1553.4z M444.9,1640.4c0-33.3-23.8-56.1-51.3-56.1c-27.6,0-51.3,22.8-51.3,56.1
			c0,33,23.8,56.1,51.3,56.1C421.1,1696.5,444.9,1673.3,444.9,1640.4 M484.9,1640.4c0,53.3-41,92.6-91.3,92.6s-91.3-39.3-91.3-92.6
			c0-53.7,41-92.6,91.3-92.6C443.9,1547.8,484.9,1586.7,484.9,1640.4 M649.5,1640.4c0-33.3-23.8-56.1-51.3-56.1
			c-27.6,0-51.3,22.8-51.3,56.1c0,33,23.8,56.1,51.3,56.1S649.5,1673.3,649.5,1640.4 M689.5,1640.4c0,53.3-41,92.6-91.3,92.6
			c-50.3,0-91.3-39.3-91.3-92.6c0-53.7,41-92.6,91.3-92.6C648.5,1547.8,689.5,1586.7,689.5,1640.4 M145.9,1733
			C66.7,1733,0,1668.4,0,1589.2c0-79.3,66.7-143.9,145.9-143.9c43.9,0,75.1,17.2,98.6,39.7l-27.7,27.7
			c-16.8-15.8-39.6-28.1-70.9-28.1c-57.9,0-103.2,46.7-103.2,104.5c0,57.9,45.3,104.5,103.2,104.5c37.5,0,58.9-15.1,72.6-28.8
			c11.2-11.2,18.6-27.4,21.4-49.5h-94v-39.3h132.2c1.4,7,2.1,15.4,2.1,24.5c0,29.5-8.1,66-34,91.9C221,1718.9,188.7,1733,145.9,1733
			"/>
		<g id="flowRoot2998" transform="matrix(4.2191115,0,0,4.2191115,-384.028,-1510.8399)">
			<path id="path3911" class="st1" d="M387.2,766.9v-57.3h7.4l19.9,34.9h0.3l19.9-34.9h7.4v57.3h-7.4v-34l0.3-9.6h-0.3l-17.9,31.4
				h-4.3l-17.9-31.4h-0.3l0.3,9.6v34H387.2z"/>
			<path id="path3913" class="st1" d="M464.7,768.2c-4.2,0-7.6-1.2-10.4-3.6c-2.8-2.4-4.2-5.6-4.2-9.5c0-4.3,1.7-7.6,5-10
				s7.4-3.6,12.2-3.6c4.3,0,7.9,0.8,10.6,2.4v-1.1c0-2.9-1-5.2-3-6.9c-2-1.7-4.4-2.6-7.3-2.6c-2.1,0-4.1,0.5-5.8,1.5
				c-1.7,1-2.9,2.4-3.6,4.2l-6.7-2.9c0.9-2.3,2.7-4.5,5.4-6.5c2.7-2,6.2-3,10.6-3c5,0,9.2,1.5,12.5,4.4c3.3,2.9,5,7.1,5,12.4v23.7
				h-7v-5.4h-0.3C474.7,765.9,470.4,768.2,464.7,768.2z M465.9,761.4c3,0,5.8-1.1,8.3-3.4c2.5-2.3,3.7-4.9,3.7-8
				c-2.1-1.7-5.2-2.6-9.4-2.6c-3.6,0-6.3,0.8-8.1,2.3c-1.8,1.5-2.7,3.4-2.7,5.4c0,1.9,0.8,3.4,2.5,4.6S463.8,761.4,465.9,761.4z"/>
			<path id="path3915" class="st1" d="M513.7,768.2c-3,0-5.7-0.6-8-1.9s-4.1-2.9-5.3-4.8H500l0.3,5.4v17.3H493v-56.5h7v5.4h0.3
				c1.2-1.9,2.9-3.5,5.3-4.8c2.4-1.3,5.1-1.9,8-1.9c5.1,0,9.4,2,13.1,6c3.7,4,5.5,9,5.5,14.9c0,5.9-1.8,10.9-5.5,14.9
				C523.1,766.2,518.7,768.2,513.7,768.2z M512.5,761.4c3.4,0,6.3-1.3,8.8-3.9c2.5-2.6,3.7-6,3.7-10.3c0-4.3-1.2-7.7-3.7-10.3
				c-2.5-2.6-5.4-3.9-8.8-3.9c-3.5,0-6.4,1.3-8.8,3.8c-2.4,2.6-3.6,6-3.6,10.3c0,4.3,1.2,7.8,3.6,10.3
				C506.1,760.2,509,761.4,512.5,761.4z"/>
			<path id="path3917" class="st1" d="M553.6,768.2c-4.4,0-8-1.1-10.8-3.2c-2.9-2.1-4.9-4.8-6.3-8l6.6-2.7c2.1,4.9,5.6,7.4,10.6,7.4
				c2.3,0,4.2-0.5,5.6-1.5c1.5-1,2.2-2.3,2.2-4c0-2.6-1.8-4.3-5.4-5.2l-7.9-1.9c-2.5-0.6-4.9-1.9-7.1-3.6s-3.4-4.2-3.4-7.2
				c0-3.5,1.5-6.3,4.6-8.4c3.1-2.2,6.7-3.2,10.9-3.2c3.5,0,6.6,0.8,9.3,2.4c2.7,1.6,4.7,3.8,5.8,6.8l-6.4,2.6
				c-1.4-3.5-4.4-5.2-9-5.2c-2.2,0-4,0.5-5.5,1.4c-1.5,0.9-2.2,2.1-2.2,3.7c0,2.2,1.7,3.8,5.2,4.6l7.8,1.8c3.7,0.9,6.4,2.3,8.2,4.4
				c1.8,2.1,2.6,4.4,2.6,7c0,3.5-1.4,6.5-4.3,8.8C561.9,767,558.2,768.2,553.6,768.2z"/>
		</g>
	</g>
	<g>
		<path class="st2" d="M1408.8,230.6c8.6,18.9,18.3,37.4,25.5,56.9c20.6,56.1,26.9,114.2,23.6,173.8
			c-5.2,96.1-39.1,181.6-93.2,260.1c-32.1,46.5-68.6,89.6-103.5,133.9c-33.7,42.7-66.8,85.9-99.1,129.6
			c-40.5,54.7-69.8,115.1-89.2,180.4c-4,13.4-9.2,26.6-14.9,39.5c-5,11.3-13.5,19.2-26.3,21.6c-18.4,3.5-33.5-2.7-41.6-19.6
			c-5.9-12.1-10.7-25-14.3-38c-21.7-79.2-61.7-148.8-110.7-213.8c-11.8-15.7-23.5-31.4-35.3-47.1c30.2-35.2,60.3-70.3,90.5-105.6
			c64.5-75.4,129-150.9,193.3-226.4c6.4-7.6,12.3-15.6,18.5-23.4c0,0-0.1,0-0.1,0c0.6-0.8,1.1-1.5,1.7-2.3
			c9.9-11.3,19.8-22.6,29.8-33.8c0.7-1.1,1.4-2.1,2.1-3.2l0,0.1c0.5-0.6,1-1.1,1.4-1.7l0,0.1c1.3-1,2.9-1.7,4-2.9
			c21.5-25,42.9-50.1,64.3-75.1c28.3-33.1,56.6-66.1,84.9-99.1C1349.7,299.8,1379.3,265.2,1408.8,230.6z"/>
		<path class="st3" d="M1132.2,552.3c-6.1,7.8-12,15.9-18.5,23.4c-64.4,75.5-128.9,151-193.3,226.4c-30.1,35.2-60.3,70.4-90.5,105.6
			c-14.5-17.7-29-35.3-43.5-53c-35.1-43.1-70.9-85.6-102.6-131.3c-18.6-26.9-35.6-54.8-49.7-84.3c-1.2-2.4-1.9-5.1-2.8-7.7
			c4.4-4.8,8.9-9.6,13.1-14.5c19.8-23.1,39.5-46.3,59.2-69.4c16-18.7,32.1-37.4,48.1-56.1c19.6-22.9,39.1-45.9,58.7-68.9
			c16.6-19.5,33.2-39.1,50-58.5c5.7-6.5,12-12.5,18-18.7c-0.9,2.5-1.7,5.1-2.9,7.5c-19.1,37.2-24.2,76.1-13.2,116.5
			c31,113.8,168.2,159.6,263.6,86.9C1127.9,554.7,1130.1,553.6,1132.2,552.3z"/>
		<path class="st4" d="M1408.8,230.6c-29.6,34.6-59.1,69.2-88.7,103.8c-28.3,33.1-56.6,66.1-84.9,99.1c-21.4,25-42.8,50.1-64.3,75.1
			c-1,1.2-2.6,2-4,2.9c1.2-2.7,2.2-5.5,3.5-8.2c19.4-37.3,24.3-76.5,13.3-117.1c-29.6-109.1-156.5-155-250.6-95.9
			c-6.4,4-12.4,8.5-18.6,12.8c1.9-3.4,3.4-7.2,5.8-10.1c10-11.9,20.4-23.5,30.5-35.3c15.9-18.7,31.5-37.7,47.5-56.3
			c13.7-16,27.8-31.7,41.5-47.7c19-22.3,37.8-44.8,56.8-67.2c18.8-22.2,37.8-44.2,56.6-66.4c19.7,7.5,40,13.6,59,22.6
			c83.2,39.4,147.4,99.6,192.9,179.7C1406.5,225,1407.6,227.8,1408.8,230.6z"/>
		<path class="st5" d="M878.4,345.4c-6,6.2-12.4,12.2-18,18.7c-16.8,19.4-33.3,39-50,58.5c-19.6,23-39.1,45.9-58.7,68.9
			c-16,18.7-32.1,37.4-48.1,56.1c-19.8,23.1-39.5,46.3-59.2,69.4c-4.2,5-8.7,9.7-13.1,14.5c-11.8-22.9-20-47.1-26.9-71.9
			c-13.6-49.2-18.8-99.5-16.4-150.3c4.6-94.9,37.6-179,98.2-252.2c0.9-1.1,2.2-2.1,3.3-3.1c30.3,24.9,60.6,49.8,90.9,74.7
			c38.3,31.4,76.5,62.9,114.8,94.3c-3.6,4.8-7.2,9.6-10.7,14.5c-0.6,0.6-1.2,1.2-1.8,1.8l0.1-0.1c-1.1,1-2.1,2-3.2,3
			c-0.5,1.1-0.9,2.1-1.4,3.2C878.2,345.3,878.4,345.4,878.4,345.4z"/>
		<path class="st6" d="M895.2,322.9c-38.3-31.4-76.5-62.9-114.8-94.3c-30.3-24.9-60.6-49.8-90.9-74.7c8.4-9.3,16.3-19.1,25.3-27.9
			C779.7,62.3,857.2,22.6,946.6,6.8c68.3-12.1,135.8-7.9,202.3,11.8c1.4,0.4,2.8,1,4.2,1.6c-18.9,22.1-37.8,44.2-56.6,66.4
			c-19,22.4-37.7,44.9-56.8,67.2c-13.7,16-27.8,31.7-41.5,47.7c-16,18.7-31.6,37.6-47.5,56.3c-10.1,11.9-20.5,23.4-30.5,35.3
			c-2.5,2.9-3.9,6.7-5.8,10.1C908.1,309.7,901.6,316.3,895.2,322.9z"/>
		<path class="st4" d="M1163.5,516.2c0.7-1.1,1.4-2.1,2.1-3.2C1164.9,514.1,1164.2,515.2,1163.5,516.2z"/>
		<path class="st4" d="M1165.5,513.1c0.5-0.6,1-1.1,1.4-1.7C1166.5,512,1166,512.6,1165.5,513.1z"/>
		<path class="st3" d="M1132.1,552.4c0.6-0.8,1.1-1.5,1.7-2.3C1133.2,550.8,1132.6,551.6,1132.1,552.4z"/>
		<path class="st3" d="M881.3,342.1c-1.1,1.1-2.1,2.1-3.2,3.2c0.5-1.1,0.9-2.1,1.4-3.2C880.1,342.1,880.7,342.1,881.3,342.1z"/>
		<path class="st7" d="M881.3,342.1c-0.6,0-1.2,0-1.8,0c1.1-1,2.1-2,3.2-3C882.3,340.1,881.8,341.1,881.3,342.1z"/>
		<path class="st7" d="M884.4,337.4c-0.6,0.6-1.2,1.2-1.8,1.8C883.2,338.6,883.8,338,884.4,337.4z"/>
	</g>
</g>
</svg>
